{
  "accessors": [
    {
      "bufferView": 2,
      "componentType": 5126,
      "count": 92,
      "max": [
        10.393265724182129,
        23.258411407470703,
        8.836075782775879
      ],
      "min": [
        7.238857746124268,
        21.226411819458008,
        6.674870014190674
      ],
      "type": "VEC3"
    },
    {
      "bufferView": 2,
      "byteOffset": 1104,
      "componentType": 5126,
      "count": 92,
      "max": [
        1.0,
        1.0,
        1.0
      ],
      "min": [
        -1.0,
        -1.0,
        -1.0
      ],
      "type": "VEC3"
    },
    {
      "bufferView": 1,
      "componentType": 5126,
      "count": 92,
      "max": [
        0.827567994594574,
        0.9966269731521606
      ],
      "min": [
        0.00711899995803833,
        0.014918000437319279
      ],
      "type": "VEC2"
    },
    {
      "bufferView": 0,
      "componentType": 5125,
      "count": 114,
      "type": "SCALAR"
    },
    {
      "bufferView": 2,
      "byteOffset": 2208,
      "componentType": 5126,
      "count": 5637,
      "max": [
        17.293960571289063,
        28.948837280273438,
        13.22562026977539
      ],
      "min": [
        0.2596168518066406,
        0.0,
        0.0
      ],
      "type": "VEC3"
    },
    {
      "bufferView": 2,
      "byteOffset": 69852,
      "componentType": 5126,
      "count": 5637,
      "max": [
        1.0,
        1.0,
        1.0
      ],
      "min": [
        -1.0,
        -1.0,
        -1.0
      ],
      "type": "VEC3"
    },
    {
      "bufferView": 3,
      "componentType": 5126,
      "count": 5637,
      "max": [
        1.0,
        1.0,
        1.0,
        1.0
      ],
      "min": [
        -1.0,
        -1.0,
        -1.0,
        -1.0
      ],
      "type": "VEC4"
    },
    {
      "bufferView": 1,
      "byteOffset": 736,
      "componentType": 5126,
      "count": 5637,
      "max": [
        0.9953740239143372,
        0.9983429908752441
      ],
      "min": [
        0.0018609999679028988,
        0.005051000043749809
      ],
      "type": "VEC2"
    },
    {
      "bufferView": 0,
      "byteOffset": 456,
      "componentType": 5125,
      "count": 13512,
      "type": "SCALAR"
    },
    {
      "bufferView": 2,
      "byteOffset": 137496,
      "componentType": 5126,
      "count": 6241,
      "max": [
        17.553579330444336,
        29.425228118896484,
        13.22562026977539
      ],
      "min": [
        0.0,
        0.0,
        0.0
      ],
      "type": "VEC3"
    },
    {
      "bufferView": 2,
      "byteOffset": 212388,
      "componentType": 5126,
      "count": 6241,
      "max": [
        1.0,
        1.0,
        1.0
      ],
      "min": [
        -1.0,
        -1.0,
        -1.0
      ],
      "type": "VEC3"
    },
    {
      "bufferView": 3,
      "byteOffset": 90192,
      "componentType": 5126,
      "count": 6241,
      "max": [
        1.0,
        1.0,
        1.0,
        1.0
      ],
      "min": [
        -1.0,
        -1.0,
        -1.0,
        -1.0
      ],
      "type": "VEC4"
    },
    {
      "bufferView": 1,
      "byteOffset": 45832,
      "componentType": 5126,
      "count": 6241,
      "max": [
        0.9973419904708862,
        0.9993640184402466
      ],
      "min": [
        0.0018609999679028988,
        0.0024880000855773687
      ],
      "type": "VEC2"
    },
    {
      "bufferView": 0,
      "byteOffset": 54504,
      "componentType": 5125,
      "count": 10116,
      "type": "SCALAR"
    },
    {
      "bufferView": 2,
      "byteOffset": 287280,
      "componentType": 5126,
      "count": 144,
      "max": [
        12.918641090393066,
        8.53490924835205,
        9.905067443847656
      ],
      "min": [
        4.640803813934326,
        0.22602462768554688,
        5.46422815322876
      ],
      "type": "VEC3"
    },
    {
      "bufferView": 2,
      "byteOffset": 289008,
      "componentType": 5126,
      "count": 144,
      "max": [
        0.9999570250511169,
        0.0498499758541584,
        0.9984997510910034
      ],
      "min": [
        -0.9999570250511169,
        -0.9956870079040527,
        -0.24222688376903534
      ],
      "type": "VEC3"
    },
    {
      "bufferView": 1,
      "byteOffset": 95760,
      "componentType": 5126,
      "count": 144,
      "max": [
        0.2419549971818924,
        0.508421003818512
      ],
      "min": [
        0.003710000077262521,
        0.375124990940094
      ],
      "type": "VEC2"
    },
    {
      "bufferView": 0,
      "byteOffset": 94968,
      "componentType": 5125,
      "count": 552,
      "type": "SCALAR"
    }
  ],
  "asset": {
    "extras": {
      "author": "TigerNDV (https://sketchfab.com/TigerNDV)",
      "license": "CC-BY-4.0 (http://creativecommons.org/licenses/by/4.0/)",
      "source": "https://sketchfab.com/3d-models/mother-spaceship-9e0e86c41ed24676a7c8b25fdfa002c0",
      "title": "Mother Spaceship"
    },
    "generator": "Sketchfab-12.67.0",
    "version": "2.0"
  },
  "bufferViews": [
    {
      "buffer": 0,
      "byteLength": 97176,
      "name": "floatBufferViews",
      "target": 34963
    },
    {
      "buffer": 0,
      "byteLength": 96912,
      "byteOffset": 97176,
      "byteStride": 8,
      "name": "floatBufferViews",
      "target": 34962
    },
    {
      "buffer": 0,
      "byteLength": 290736,
      "byteOffset": 194088,
      "byteStride": 12,
      "name": "floatBufferViews",
      "target": 34962
    },
    {
      "buffer": 0,
      "byteLength": 190048,
      "byteOffset": 484824,
      "byteStride": 16,
      "name": "floatBufferViews",
      "target": 34962
    }
  ],
  "buffers": [
    {
      "byteLength": 674872,
      "uri": "scene.bin"
    }
  ],
  "images": [
    {
      "uri": "textures/blinn1SG_baseColor.png"
    },
    {
      "uri": "textures/blinn1SG_emissive.png"
    },
    {
      "uri": "textures/blinn1SG_normal.png"
    },
    {
      "uri": "textures/blinn2SG_baseColor.png"
    }
  ],
  "materials": [
    {
      "doubleSided": true,
      "name": "Mothership_Iteration1blinn3SG",
      "pbrMetallicRoughness": {
        "metallicFactor": 0.0,
        "roughnessFactor": 0.6
      }
    },
    {
      "doubleSided": true,
      "emissiveFactor": [
        1.0,
        1.0,
        1.0
      ],
      "emissiveTexture": {
        "index": 1
      },
      "name": "blinn1SG",
      "normalTexture": {
        "index": 2
      },
      "pbrMetallicRoughness": {
        "baseColorTexture": {
          "index": 0
        },
        "metallicFactor": 0.0,
        "roughnessFactor": 0.6
      }
    },
    {
      "alphaCutoff": 0.8068134619754815,
      "alphaMode": "MASK",
      "doubleSided": true,
      "name": "blinn2SG",
      "pbrMetallicRoughness": {
        "baseColorTexture": {
          "index": 3
        },
        "metallicFactor": 0.0,
        "roughnessFactor": 0.6
      }
    }
  ],
  "meshes": [
    {
      "name": "Object_0",
      "primitives": [
        {
          "attributes": {
            "NORMAL": 1,
            "POSITION": 0,
            "TEXCOORD_0": 2
          },
          "indices": 3,
          "material": 0,
          "mode": 4
        }
      ]
    },
    {
      "name": "Object_1",
      "primitives": [
        {
          "attributes": {
            "NORMAL": 5,
            "POSITION": 4,
            "TANGENT": 6,
            "TEXCOORD_0": 7
          },
          "indices": 8,
          "material": 1,
          "mode": 4
        }
      ]
    },
    {
      "name": "Object_2",
      "primitives": [
        {
          "attributes": {
            "NORMAL": 10,
            "POSITION": 9,
            "TANGENT": 11,
            "TEXCOORD_0": 12
          },
          "indices": 13,
          "material": 1,
          "mode": 4
        }
      ]
    },
    {
      "name": "Object_3",
      "primitives": [
        {
          "attributes": {
            "NORMAL": 15,
            "POSITION": 14,
            "TEXCOORD_0": 16
          },
          "indices": 17,
          "material": 2,
          "mode": 4
        }
      ]
    }
  ],
  "nodes": [
    {
      "children": [
        1
      ],
      "matrix": [
        1.0,
        0.0,
        0.0,
        0.0,
        0.0,
        2.220446049250313e-16,
        -1.0,
        0.0,
        0.0,
        1.0,
        2.220446049250313e-16,
        0.0,
        0.0,
        0.0,
        0.0,
        1.0
      ],
      "name": "Sketchfab_model"
    },
    {
      "children": [
        2
      ],
      "matrix": [
        1.0,
        0.0,
        0.0,
        0.0,
        0.0,
        1.0,
        0.0,
        0.0,
        0.0,
        0.0,
        1.0,
        0.0,
        -8.783269882202148,
        -14.682806015014648,
        -6.651432037353516,
        1.0
      ],
      "name": "ms.obj.cleaner.materialmerger.gles"
    },
    {
      "children": [
        3,
        4,
        5,
        6
      ],
      "name": "Object_2"
    },
    {
      "mesh": 0,
      "name": "Object_3"
    },
    {
      "mesh": 1,
      "name": "Object_4"
    },
    {
      "mesh": 2,
      "name": "Object_5"
    },
    {
      "mesh": 3,
      "name": "Object_6"
    }
  ],
  "samplers": [
    {
      "magFilter": 9729,
      "minFilter": 9987,
      "wrapS": 10497,
      "wrapT": 10497
    }
  ],
  "scene": 0,
  "scenes": [
    {
      "name": "Sketchfab_Scene",
      "nodes": [
        0
      ]
    }
  ],
  "textures": [
    {
      "sampler": 0,
      "source": 0
    },
    {
      "sampler": 0,
      "source": 1
    },
    {
      "sampler": 0,
      "source": 2
    },
    {
      "sampler": 0,
      "source": 3
    }
  ]
}
