{
    "asset" : {
        "generator" : "Khronos glTF Blender I/O v3.4.50",
        "version" : "2.0"
    },
    "extensionsUsed" : [
        "KHR_materials_transmission",
        "KHR_materials_specular"
    ],
    "scene" : 0,
    "scenes" : [
        {
            "name" : "Scene",
            "nodes" : [
                0,
                1
            ]
        }
    ],
    "nodes" : [
        {
            "mesh" : 0,
            "name" : "viper",
            "rotation" : [
                0.70710688829422,
                0,
                0,
                0.7071066498756409
            ]
        },
        {
            "mesh" : 1,
            "name" : "viper.001",
            "rotation" : [
                0.70710688829422,
                0,
                0,
                0.7071066498756409
            ]
        }
    ],
    "materials" : [
        {
            "doubleSided" : true,
            "extensions" : {
                "KHR_materials_transmission" : {
                    "transmissionFactor" : 1
                },
                "KHR_materials_specular" : {
                    "specularColorFactor" : [
                        1,
                        1,
                        1
                    ]
                }
            },
            "name" : "01___Default1",
            "pbrMetallicRoughness" : {
                "metallicFactor" : 0,
                "roughnessFactor" : 0.8999999761581421
            }
        },
        {
            "doubleSided" : true,
            "extensions" : {
                "KHR_materials_transmission" : {
                    "transmissionFactor" : 1
                },
                "KHR_materials_specular" : {
                    "specularColorFactor" : [
                        1,
                        1,
                        1
                    ]
                }
            },
            "name" : "_Gray6_",
            "pbrMetallicRoughness" : {
                "baseColorFactor" : [
                    0.6588000059127808,
                    0.6588000059127808,
                    0.6588000059127808,
                    1
                ],
                "metallicFactor" : 0,
                "roughnessFactor" : 0.8999999761581421
            }
        },
        {
            "doubleSided" : true,
            "extensions" : {
                "KHR_materials_transmission" : {
                    "transmissionFactor" : 1
                },
                "KHR_materials_specular" : {
                    "specularColorFactor" : [
                        1,
                        1,
                        1
                    ]
                }
            },
            "name" : "01___Default1.001",
            "pbrMetallicRoughness" : {
                "metallicFactor" : 0,
                "roughnessFactor" : 0.8999999761581421
            }
        },
        {
            "doubleSided" : true,
            "extensions" : {
                "KHR_materials_transmission" : {
                    "transmissionFactor" : 1
                },
                "KHR_materials_specular" : {
                    "specularColorFactor" : [
                        1,
                        1,
                        1
                    ]
                }
            },
            "name" : "_Gray6_.001",
            "pbrMetallicRoughness" : {
                "baseColorFactor" : [
                    0.6588000059127808,
                    0.6588000059127808,
                    0.6588000059127808,
                    1
                ],
                "metallicFactor" : 0,
                "roughnessFactor" : 0.8999999761581421
            }
        }
    ],
    "meshes" : [
        {
            "name" : "viper",
            "primitives" : [
                {
                    "attributes" : {
                        "POSITION" : 0,
                        "TEXCOORD_0" : 1,
                        "NORMAL" : 2
                    },
                    "indices" : 3,
                    "material" : 0
                },
                {
                    "attributes" : {
                        "POSITION" : 4,
                        "TEXCOORD_0" : 5,
                        "NORMAL" : 6
                    },
                    "indices" : 7,
                    "material" : 1
                }
            ]
        },
        {
            "name" : "viper.001",
            "primitives" : [
                {
                    "attributes" : {
                        "POSITION" : 8,
                        "TEXCOORD_0" : 9,
                        "NORMAL" : 10
                    },
                    "indices" : 3,
                    "material" : 2
                },
                {
                    "attributes" : {
                        "POSITION" : 11,
                        "TEXCOORD_0" : 12,
                        "NORMAL" : 13
                    },
                    "indices" : 7,
                    "material" : 3
                }
            ]
        }
    ],
    "accessors" : [
        {
            "bufferView" : 0,
            "componentType" : 5126,
            "count" : 4798,
            "max" : [
                96.0698013305664,
                165.4246063232422,
                0
            ],
            "min" : [
                -96.0698013305664,
                -165.4246063232422,
                -111.60099792480469
            ],
            "type" : "VEC3"
        },
        {
            "bufferView" : 1,
            "componentType" : 5126,
            "count" : 4798,
            "type" : "VEC2"
        },
        {
            "bufferView" : 2,
            "componentType" : 5126,
            "count" : 4798,
            "type" : "VEC3"
        },
        {
            "bufferView" : 3,
            "componentType" : 5123,
            "count" : 4851,
            "type" : "SCALAR"
        },
        {
            "bufferView" : 4,
            "componentType" : 5126,
            "count" : 1663,
            "max" : [
                93.90599822998047,
                129.72230529785156,
                -2.0130999088287354
            ],
            "min" : [
                -93.90599822998047,
                -165.4246063232422,
                -111.60099792480469
            ],
            "type" : "VEC3"
        },
        {
            "bufferView" : 5,
            "componentType" : 5126,
            "count" : 1663,
            "type" : "VEC2"
        },
        {
            "bufferView" : 6,
            "componentType" : 5126,
            "count" : 1663,
            "type" : "VEC3"
        },
        {
            "bufferView" : 7,
            "componentType" : 5123,
            "count" : 1704,
            "type" : "SCALAR"
        },
        {
            "bufferView" : 8,
            "componentType" : 5126,
            "count" : 4798,
            "max" : [
                96.0698013305664,
                165.4246063232422,
                0
            ],
            "min" : [
                -96.0698013305664,
                -165.4246063232422,
                -111.60099792480469
            ],
            "type" : "VEC3"
        },
        {
            "bufferView" : 9,
            "componentType" : 5126,
            "count" : 4798,
            "type" : "VEC2"
        },
        {
            "bufferView" : 10,
            "componentType" : 5126,
            "count" : 4798,
            "type" : "VEC3"
        },
        {
            "bufferView" : 11,
            "componentType" : 5126,
            "count" : 1663,
            "max" : [
                93.90599822998047,
                129.72230529785156,
                -2.0130999088287354
            ],
            "min" : [
                -93.90599822998047,
                -165.4246063232422,
                -111.60099792480469
            ],
            "type" : "VEC3"
        },
        {
            "bufferView" : 12,
            "componentType" : 5126,
            "count" : 1663,
            "type" : "VEC2"
        },
        {
            "bufferView" : 13,
            "componentType" : 5126,
            "count" : 1663,
            "type" : "VEC3"
        }
    ],
    "bufferViews" : [
        {
            "buffer" : 0,
            "byteLength" : 57576,
            "byteOffset" : 0,
            "target" : 34962
        },
        {
            "buffer" : 0,
            "byteLength" : 38384,
            "byteOffset" : 57576,
            "target" : 34962
        },
        {
            "buffer" : 0,
            "byteLength" : 57576,
            "byteOffset" : 95960,
            "target" : 34962
        },
        {
            "buffer" : 0,
            "byteLength" : 9702,
            "byteOffset" : 153536,
            "target" : 34963
        },
        {
            "buffer" : 0,
            "byteLength" : 19956,
            "byteOffset" : 163240,
            "target" : 34962
        },
        {
            "buffer" : 0,
            "byteLength" : 13304,
            "byteOffset" : 183196,
            "target" : 34962
        },
        {
            "buffer" : 0,
            "byteLength" : 19956,
            "byteOffset" : 196500,
            "target" : 34962
        },
        {
            "buffer" : 0,
            "byteLength" : 3408,
            "byteOffset" : 216456,
            "target" : 34963
        },
        {
            "buffer" : 0,
            "byteLength" : 57576,
            "byteOffset" : 219864,
            "target" : 34962
        },
        {
            "buffer" : 0,
            "byteLength" : 38384,
            "byteOffset" : 277440,
            "target" : 34962
        },
        {
            "buffer" : 0,
            "byteLength" : 57576,
            "byteOffset" : 315824,
            "target" : 34962
        },
        {
            "buffer" : 0,
            "byteLength" : 19956,
            "byteOffset" : 373400,
            "target" : 34962
        },
        {
            "buffer" : 0,
            "byteLength" : 13304,
            "byteOffset" : 393356,
            "target" : 34962
        },
        {
            "buffer" : 0,
            "byteLength" : 19956,
            "byteOffset" : 406660,
            "target" : 34962
        }
    ],
    "buffers" : [
        {
            "byteLength" : 426616,
            "uri" : "viper.bin"
        }
    ]
}
